solid exported
	facet normal 0.40018387142837003 -0.6705925824992552 -0.6246266543668958
		outer loop
			vertex 398.32384487405676 160 -363.1241035854661
			vertex 163.39651426589197 160 -513.6366185571464
			vertex 499.50076701503053 306.2921142578125 -455.3600558860222
		endloop
	endfacet
	facet normal 0.4001838896063752 -0.670592663577125 -0.6246265556763092
		outer loop
			vertex 163.39651426589197 160 -513.6366185571464
			vertex 204.9003470564931 306.2921142578125 -644.1037794234085
			vertex 499.50076701503053 306.2921142578125 -455.3600558860222
		endloop
	endfacet
	facet normal 0.5261005757110666 -0.22115321248362355 -0.8211634677971601
		outer loop
			vertex 499.50076701503053 306.2921142578125 -455.3600558860222
			vertex 204.9003470564931 306.2921142578125 -644.1037794234085
			vertex 532.1659820641878 494.57012939453125 -485.1386571065998
		endloop
	endfacet
	facet normal 0.5261005029272123 -0.22115299777820785 -0.8211635722518665
		outer loop
			vertex 204.9003470564931 306.2921142578125 -644.1037794234085
			vertex 218.2999195090506 494.57012939453125 -686.2253820196656
			vertex 532.1659820641878 494.57012939453125 -485.1386571065998
		endloop
	endfacet
	facet normal 0.3897450988327439 0.6913966313937903 -0.6083333428583168
		outer loop
			vertex 532.1659820641878 494.57012939453125 -485.1386571065998
			vertex 218.2999195090506 494.57012939453125 -686.2253820196656
			vertex 427.88405599643573 637 -390.0720890092484
		endloop
	endfacet
	facet normal 0.38974514904038793 0.691396589539533 -0.6083333582605743
		outer loop
			vertex 218.2999195090506 494.57012939453125 -686.2253820196656
			vertex 175.52241944874683 637 -551.75436783346
			vertex 427.88405599643573 637 -390.0720890092484
		endloop
	endfacet
	facet normal 0.0342560777259364 -0.6705926479958757 -0.7410344267257185
		outer loop
			vertex 163.39651426589197 160 -513.6366185571464
			vertex -115.31277368308966 160 -526.5206178513581
			vertex 204.9003470564931 306.2921142578125 -644.1037794234085
		endloop
	endfacet
	facet normal 0.034256077725936786 -0.6705926479958761 -0.7410344267257181
		outer loop
			vertex -115.31277368308966 160 -526.5206178513581
			vertex -144.603012408378 306.2921142578125 -660.2604029425154
			vertex 204.9003470564931 306.2921142578125 -644.1037794234085
		endloop
	endfacet
	facet normal 0.045034652842839154 -0.22115305243800068 -0.9741987515084793
		outer loop
			vertex 204.9003470564931 306.2921142578125 -644.1037794234085
			vertex -144.603012408378 306.2921142578125 -660.2604029425154
			vertex 218.2999195090506 494.57012939453125 -686.2253820196656
		endloop
	endfacet
	facet normal 0.0450346528428391 -0.22115305243800062 -0.9741987515084796
		outer loop
			vertex -144.603012408378 306.2921142578125 -660.2604029425154
			vertex -154.0593999554779 494.57012939453125 -703.4385766156504
			vertex 218.2999195090506 494.57012939453125 -686.2253820196656
		endloop
	endfacet
	facet normal 0.033362515385100225 0.6913966022829513 -0.7217047047919042
		outer loop
			vertex 218.2999195090506 494.57012939453125 -686.2253820196656
			vertex -154.0593999554779 494.57012939453125 -703.4385766156504
			vertex 175.52241944874683 637 -551.75436783346
		endloop
	endfacet
	facet normal 0.033362515385099725 0.6913966022829517 -0.7217047047919037
		outer loop
			vertex -154.0593999554779 494.57012939453125 -703.4385766156504
			vertex -123.87031183702427 637 -565.5945084579952
			vertex 175.52241944874683 637 -551.75436783346
		endloop
	endfacet
	facet normal -0.3408505617255187 -0.6705926727138845 -0.6588826616885949
		outer loop
			vertex -115.31277368308966 160 -526.5206178513581
			vertex -363.1241035854661 160 -398.32384487405676
			vertex -144.603012408378 306.2921142578125 -660.2604029425154
		endloop
	endfacet
	facet normal -0.3408506562830783 -0.6705925916360168 -0.6588826952912675
		outer loop
			vertex -363.1241035854661 160 -398.32384487405676
			vertex -455.36005588602217 306.2921142578125 -499.50076701503053
			vertex -144.603012408378 306.2921142578125 -660.2604029425154
		endloop
	endfacet
	facet normal -0.44809829849464233 -0.22115299098007563 -0.8661981698588223
		outer loop
			vertex -144.603012408378 306.2921142578125 -660.2604029425154
			vertex -455.36005588602217 306.2921142578125 -499.50076701503053
			vertex -154.0593999554779 494.57012939453125 -703.4385766156504
		endloop
	endfacet
	facet normal -0.44809817164228594 -0.22115320568550026 -0.8661981806641408
		outer loop
			vertex -455.36005588602217 306.2921142578125 -499.50076701503053
			vertex -485.13865710659974 494.57012939453125 -532.1659820641878
			vertex -154.0593999554779 494.57012939453125 -703.4385766156504
		endloop
	endfacet
	facet normal -0.33195954441261527 0.6913965940857998 -0.6416958863511008
		outer loop
			vertex -154.0593999554779 494.57012939453125 -703.4385766156504
			vertex -485.13865710659974 494.57012939453125 -532.1659820641878
			vertex -123.87031183702427 637 -565.5945084579952
		endloop
	endfacet
	facet normal -0.3319595561776924 0.6913966359400555 -0.6416958351688781
		outer loop
			vertex -485.13865710659974 494.57012939453125 -532.1659820641878
			vertex -390.0720890092484 637 -427.88405599643573
			vertex -123.87031183702427 637 -565.5945084579952
		endloop
	endfacet
	facet normal -0.6246266543668958 -0.6705925824992551 -0.40018387142837003
		outer loop
			vertex -363.1241035854661 160 -398.32384487405676
			vertex -513.6366185571464 160 -163.39651426589197
			vertex -455.36005588602217 306.2921142578125 -499.50076701503053
		endloop
	endfacet
	facet normal -0.6246265556763092 -0.670592663577125 -0.4001838896063753
		outer loop
			vertex -513.6366185571464 160 -163.39651426589197
			vertex -644.1037794234085 306.2921142578125 -204.9003470564931
			vertex -455.36005588602217 306.2921142578125 -499.50076701503053
		endloop
	endfacet
	facet normal -0.8211634677971601 -0.22115321248362366 -0.5261005757110668
		outer loop
			vertex -455.36005588602217 306.2921142578125 -499.50076701503053
			vertex -644.1037794234085 306.2921142578125 -204.9003470564931
			vertex -485.13865710659974 494.57012939453125 -532.1659820641878
		endloop
	endfacet
	facet normal -0.8211635722518665 -0.22115299777820785 -0.5261005029272124
		outer loop
			vertex -644.1037794234085 306.2921142578125 -204.9003470564931
			vertex -686.2253820196656 494.57012939453125 -218.2999195090506
			vertex -485.13865710659974 494.57012939453125 -532.1659820641878
		endloop
	endfacet
	facet normal -0.6083333428583168 0.69139663139379 -0.38974509883274394
		outer loop
			vertex -485.13865710659974 494.57012939453125 -532.1659820641878
			vertex -686.2253820196656 494.57012939453125 -218.2999195090506
			vertex -390.0720890092484 637 -427.88405599643573
		endloop
	endfacet
	facet normal -0.6083333582605744 0.6913965895395331 -0.38974514904038804
		outer loop
			vertex -686.2253820196656 494.57012939453125 -218.2999195090506
			vertex -551.75436783346 637 -175.52241944874683
			vertex -390.0720890092484 637 -427.88405599643573
		endloop
	endfacet
	facet normal -0.7410344267257185 -0.6705926479958757 -0.0342560777259364
		outer loop
			vertex -513.6366185571464 160 -163.39651426589197
			vertex -526.5206178513581 160 115.31277368308966
			vertex -644.1037794234085 306.2921142578125 -204.9003470564931
		endloop
	endfacet
	facet normal -0.7410344267257181 -0.6705926479958761 -0.034256077725936786
		outer loop
			vertex -526.5206178513581 160 115.31277368308966
			vertex -660.2604029425154 306.2921142578125 144.603012408378
			vertex -644.1037794234085 306.2921142578125 -204.9003470564931
		endloop
	endfacet
	facet normal -0.9741987515084793 -0.22115305243800068 -0.045034652842839154
		outer loop
			vertex -644.1037794234085 306.2921142578125 -204.9003470564931
			vertex -660.2604029425154 306.2921142578125 144.603012408378
			vertex -686.2253820196656 494.57012939453125 -218.2999195090506
		endloop
	endfacet
	facet normal -0.9741987515084796 -0.22115305243800062 -0.0450346528428391
		outer loop
			vertex -660.2604029425154 306.2921142578125 144.603012408378
			vertex -703.4385766156504 494.57012939453125 154.0593999554779
			vertex -686.2253820196656 494.57012939453125 -218.2999195090506
		endloop
	endfacet
	facet normal -0.7217047047919042 0.6913966022829513 -0.033362515385100225
		outer loop
			vertex -686.2253820196656 494.57012939453125 -218.2999195090506
			vertex -703.4385766156504 494.57012939453125 154.0593999554779
			vertex -551.75436783346 637 -175.52241944874683
		endloop
	endfacet
	facet normal -0.7217047047919037 0.6913966022829517 -0.033362515385099725
		outer loop
			vertex -703.4385766156504 494.57012939453125 154.0593999554779
			vertex -565.5945084579952 637 123.87031183702427
			vertex -551.75436783346 637 -175.52241944874683
		endloop
	endfacet
	facet normal -0.658882661688595 -0.6705926727138843 0.3408505617255187
		outer loop
			vertex -526.5206178513581 160 115.31277368308966
			vertex -398.3238448740568 160 363.12410358546606
			vertex -660.2604029425154 306.2921142578125 144.603012408378
		endloop
	endfacet
	facet normal -0.6588826952912675 -0.6705925916360168 0.3408506562830782
		outer loop
			vertex -398.3238448740568 160 363.12410358546606
			vertex -499.5007670150306 306.2921142578125 455.36005588602217
			vertex -660.2604029425154 306.2921142578125 144.603012408378
		endloop
	endfacet
	facet normal -0.8661981698588225 -0.22115299098007568 0.4480982984946423
		outer loop
			vertex -660.2604029425154 306.2921142578125 144.603012408378
			vertex -499.5007670150306 306.2921142578125 455.36005588602217
			vertex -703.4385766156504 494.57012939453125 154.0593999554779
		endloop
	endfacet
	facet normal -0.8661981806641408 -0.22115320568550045 0.44809817164228566
		outer loop
			vertex -499.5007670150306 306.2921142578125 455.36005588602217
			vertex -532.1659820641879 494.57012939453125 485.13865710659974
			vertex -703.4385766156504 494.57012939453125 154.0593999554779
		endloop
	endfacet
	facet normal -0.6416958863511009 0.6913965940857997 0.3319595444126151
		outer loop
			vertex -703.4385766156504 494.57012939453125 154.0593999554779
			vertex -532.1659820641879 494.57012939453125 485.13865710659974
			vertex -565.5945084579952 637 123.87031183702427
		endloop
	endfacet
	facet normal -0.641695835168878 0.6913966359400556 0.3319595561776922
		outer loop
			vertex -532.1659820641879 494.57012939453125 485.13865710659974
			vertex -427.8840559964358 637 390.0720890092483
			vertex -565.5945084579952 637 123.87031183702427
		endloop
	endfacet
	facet normal -0.4001838714283701 -0.6705925824992551 0.6246266543668958
		outer loop
			vertex -398.3238448740568 160 363.12410358546606
			vertex -163.39651426589197 160 513.6366185571464
			vertex -499.5007670150306 306.2921142578125 455.36005588602217
		endloop
	endfacet
	facet normal -0.40018388960637524 -0.670592663577125 0.6246265556763093
		outer loop
			vertex -163.39651426589197 160 513.6366185571464
			vertex -204.9003470564931 306.2921142578125 644.1037794234085
			vertex -499.5007670150306 306.2921142578125 455.36005588602217
		endloop
	endfacet
	facet normal -0.5261005757110667 -0.22115321248362368 0.8211634677971599
		outer loop
			vertex -499.5007670150306 306.2921142578125 455.36005588602217
			vertex -204.9003470564931 306.2921142578125 644.1037794234085
			vertex -532.1659820641879 494.57012939453125 485.13865710659974
		endloop
	endfacet
	facet normal -0.5261005029272122 -0.22115299777820785 0.8211635722518666
		outer loop
			vertex -204.9003470564931 306.2921142578125 644.1037794234085
			vertex -218.2999195090506 494.57012939453125 686.2253820196656
			vertex -532.1659820641879 494.57012939453125 485.13865710659974
		endloop
	endfacet
	facet normal -0.3897450988327438 0.6913966313937903 0.6083333428583168
		outer loop
			vertex -532.1659820641879 494.57012939453125 485.13865710659974
			vertex -218.2999195090506 494.57012939453125 686.2253820196656
			vertex -427.8840559964358 637 390.0720890092483
		endloop
	endfacet
	facet normal -0.389745149040388 0.691396589539533 0.6083333582605743
		outer loop
			vertex -218.2999195090506 494.57012939453125 686.2253820196656
			vertex -175.52241944874683 637 551.75436783346
			vertex -427.8840559964358 637 390.0720890092483
		endloop
	endfacet
	facet normal -0.0342560777259364 -0.6705926479958757 0.7410344267257185
		outer loop
			vertex -163.39651426589197 160 513.6366185571464
			vertex 115.31277368308966 160 526.5206178513581
			vertex -204.9003470564931 306.2921142578125 644.1037794234085
		endloop
	endfacet
	facet normal -0.034256077725936786 -0.6705926479958761 0.7410344267257181
		outer loop
			vertex 115.31277368308966 160 526.5206178513581
			vertex 144.603012408378 306.2921142578125 660.2604029425154
			vertex -204.9003470564931 306.2921142578125 644.1037794234085
		endloop
	endfacet
	facet normal -0.045034652842839154 -0.22115305243800068 0.9741987515084793
		outer loop
			vertex -204.9003470564931 306.2921142578125 644.1037794234085
			vertex 144.603012408378 306.2921142578125 660.2604029425154
			vertex -218.2999195090506 494.57012939453125 686.2253820196656
		endloop
	endfacet
	facet normal -0.0450346528428391 -0.22115305243800062 0.9741987515084796
		outer loop
			vertex 144.603012408378 306.2921142578125 660.2604029425154
			vertex 154.0593999554779 494.57012939453125 703.4385766156504
			vertex -218.2999195090506 494.57012939453125 686.2253820196656
		endloop
	endfacet
	facet normal -0.033362515385100225 0.6913966022829513 0.7217047047919042
		outer loop
			vertex -218.2999195090506 494.57012939453125 686.2253820196656
			vertex 154.0593999554779 494.57012939453125 703.4385766156504
			vertex -175.52241944874683 637 551.75436783346
		endloop
	endfacet
	facet normal -0.033362515385099725 0.6913966022829517 0.7217047047919037
		outer loop
			vertex 154.0593999554779 494.57012939453125 703.4385766156504
			vertex 123.87031183702427 637 565.5945084579952
			vertex -175.52241944874683 637 551.75436783346
		endloop
	endfacet
	facet normal 0.3408505617255187 -0.6705926727138843 0.658882661688595
		outer loop
			vertex 115.31277368308966 160 526.5206178513581
			vertex 363.12410358546606 160 398.3238448740568
			vertex 144.603012408378 306.2921142578125 660.2604029425154
		endloop
	endfacet
	facet normal 0.34085065628307826 -0.6705925916360167 0.6588826952912676
		outer loop
			vertex 363.12410358546606 160 398.3238448740568
			vertex 455.3600558860221 306.2921142578125 499.5007670150306
			vertex 144.603012408378 306.2921142578125 660.2604029425154
		endloop
	endfacet
	facet normal 0.4480982984946424 -0.22115299098007574 0.8661981698588224
		outer loop
			vertex 144.603012408378 306.2921142578125 660.2604029425154
			vertex 455.3600558860221 306.2921142578125 499.5007670150306
			vertex 154.0593999554779 494.57012939453125 703.4385766156504
		endloop
	endfacet
	facet normal 0.4480981716422857 -0.22115320568550048 0.8661981806641407
		outer loop
			vertex 455.3600558860221 306.2921142578125 499.5007670150306
			vertex 485.1386571065997 494.57012939453125 532.1659820641879
			vertex 154.0593999554779 494.57012939453125 703.4385766156504
		endloop
	endfacet
	facet normal 0.3319595444126151 0.6913965940857998 0.6416958863511008
		outer loop
			vertex 154.0593999554779 494.57012939453125 703.4385766156504
			vertex 485.1386571065997 494.57012939453125 532.1659820641879
			vertex 123.87031183702427 637 565.5945084579952
		endloop
	endfacet
	facet normal 0.33195955617769224 0.6913966359400556 0.6416958351688781
		outer loop
			vertex 485.1386571065997 494.57012939453125 532.1659820641879
			vertex 390.0720890092483 637 427.8840559964358
			vertex 123.87031183702427 637 565.5945084579952
		endloop
	endfacet
	facet normal 0.6246266543668959 -0.670592582499255 0.4001838714283702
		outer loop
			vertex 363.12410358546606 160 398.3238448740568
			vertex 513.6366185571464 160 163.39651426589197
			vertex 455.3600558860221 306.2921142578125 499.5007670150306
		endloop
	endfacet
	facet normal 0.6246265556763092 -0.670592663577125 0.40018388960637535
		outer loop
			vertex 513.6366185571464 160 163.39651426589197
			vertex 644.1037794234085 306.2921142578125 204.9003470564931
			vertex 455.3600558860221 306.2921142578125 499.5007670150306
		endloop
	endfacet
	facet normal 0.8211634677971599 -0.22115321248362368 0.5261005757110668
		outer loop
			vertex 455.3600558860221 306.2921142578125 499.5007670150306
			vertex 644.1037794234085 306.2921142578125 204.9003470564931
			vertex 485.1386571065997 494.57012939453125 532.1659820641879
		endloop
	endfacet
	facet normal 0.8211635722518666 -0.22115299777820788 0.5261005029272123
		outer loop
			vertex 644.1037794234085 306.2921142578125 204.9003470564931
			vertex 686.2253820196656 494.57012939453125 218.2999195090506
			vertex 485.1386571065997 494.57012939453125 532.1659820641879
		endloop
	endfacet
	facet normal 0.6083333428583168 0.6913966313937902 0.3897450988327439
		outer loop
			vertex 485.1386571065997 494.57012939453125 532.1659820641879
			vertex 686.2253820196656 494.57012939453125 218.2999195090506
			vertex 390.0720890092483 637 427.8840559964358
		endloop
	endfacet
	facet normal 0.6083333582605743 0.691396589539533 0.389745149040388
		outer loop
			vertex 686.2253820196656 494.57012939453125 218.2999195090506
			vertex 551.75436783346 637 175.52241944874683
			vertex 390.0720890092483 637 427.8840559964358
		endloop
	endfacet
	facet normal 0.7410344267257185 -0.6705926479958757 0.0342560777259364
		outer loop
			vertex 513.6366185571464 160 163.39651426589197
			vertex 526.5206178513581 160 -115.31277368308966
			vertex 644.1037794234085 306.2921142578125 204.9003470564931
		endloop
	endfacet
	facet normal 0.7410344267257181 -0.6705926479958761 0.034256077725936786
		outer loop
			vertex 526.5206178513581 160 -115.31277368308966
			vertex 660.2604029425154 306.2921142578125 -144.603012408378
			vertex 644.1037794234085 306.2921142578125 204.9003470564931
		endloop
	endfacet
	facet normal 0.9741987515084793 -0.22115305243800068 0.045034652842839154
		outer loop
			vertex 644.1037794234085 306.2921142578125 204.9003470564931
			vertex 660.2604029425154 306.2921142578125 -144.603012408378
			vertex 686.2253820196656 494.57012939453125 218.2999195090506
		endloop
	endfacet
	facet normal 0.9741987515084796 -0.22115305243800062 0.0450346528428391
		outer loop
			vertex 660.2604029425154 306.2921142578125 -144.603012408378
			vertex 703.4385766156504 494.57012939453125 -154.0593999554779
			vertex 686.2253820196656 494.57012939453125 218.2999195090506
		endloop
	endfacet
	facet normal 0.7217047047919042 0.6913966022829513 0.033362515385100225
		outer loop
			vertex 686.2253820196656 494.57012939453125 218.2999195090506
			vertex 703.4385766156504 494.57012939453125 -154.0593999554779
			vertex 551.75436783346 637 175.52241944874683
		endloop
	endfacet
	facet normal 0.7217047047919037 0.6913966022829517 0.033362515385099725
		outer loop
			vertex 703.4385766156504 494.57012939453125 -154.0593999554779
			vertex 565.5945084579952 637 -123.87031183702427
			vertex 551.75436783346 637 175.52241944874683
		endloop
	endfacet
	facet normal 0.6588826616885951 -0.6705926727138845 -0.34085056172551864
		outer loop
			vertex 526.5206178513581 160 -115.31277368308966
			vertex 398.3238448740569 160 -363.124103585466
			vertex 660.2604029425154 306.2921142578125 -144.603012408378
		endloop
	endfacet
	facet normal 0.6588826952912678 -0.6705925916360168 -0.34085065628307815
		outer loop
			vertex 398.3238448740569 160 -363.124103585466
			vertex 499.50076701503065 306.2921142578125 -455.3600558860221
			vertex 660.2604029425154 306.2921142578125 -144.603012408378
		endloop
	endfacet
	facet normal 0.8661981698588224 -0.22115299098007563 -0.4480982984946422
		outer loop
			vertex 660.2604029425154 306.2921142578125 -144.603012408378
			vertex 499.50076701503065 306.2921142578125 -455.3600558860221
			vertex 703.4385766156504 494.57012939453125 -154.0593999554779
		endloop
	endfacet
	facet normal 0.8661981806641409 -0.22115320568550026 -0.4480981716422858
		outer loop
			vertex 499.50076701503065 306.2921142578125 -455.3600558860221
			vertex 532.1659820641879 494.57012939453125 -485.1386571065997
			vertex 703.4385766156504 494.57012939453125 -154.0593999554779
		endloop
	endfacet
	facet normal 0.6416958863511008 0.6913965940857998 -0.3319595444126151
		outer loop
			vertex 703.4385766156504 494.57012939453125 -154.0593999554779
			vertex 532.1659820641879 494.57012939453125 -485.1386571065997
			vertex 565.5945084579952 637 -123.87031183702427
		endloop
	endfacet
	facet normal 0.6416958351688781 0.6913966359400555 -0.3319595561776923
		outer loop
			vertex 532.1659820641879 494.57012939453125 -485.1386571065997
			vertex 427.88405599643585 637 -390.07208900924826
			vertex 565.5945084579952 637 -123.87031183702427
		endloop
	endfacet
endsolid exported
